<?xml version="1.0" encoding="UTF-8"?>
<svg xmlns="http://www.w3.org/2000/svg" xmlns:xlink="http://www.w3.org/1999/xlink" width="396" height="252" viewBox="0 0 396 252">
<defs>
<g>
<g id="glyph-0-0">
<path d="M 2.421875 -6.359375 C 1.84375 -6.359375 1.3125 -6.09375 0.984375 -5.671875 C 0.578125 -5.109375 0.375 -4.25 0.375 -3.078125 C 0.375 -0.9375 1.078125 0.203125 2.421875 0.203125 C 3.734375 0.203125 4.453125 -0.9375 4.453125 -3.03125 C 4.453125 -4.25 4.265625 -5.078125 3.859375 -5.671875 C 3.53125 -6.109375 3.015625 -6.359375 2.421875 -6.359375 Z M 2.421875 -5.671875 C 3.25 -5.671875 3.671875 -4.828125 3.671875 -3.09375 C 3.671875 -1.28125 3.265625 -0.4375 2.40625 -0.4375 C 1.578125 -0.4375 1.171875 -1.3125 1.171875 -3.0625 C 1.171875 -4.828125 1.578125 -5.671875 2.421875 -5.671875 Z M 2.421875 -5.671875 "/>
</g>
<g id="glyph-0-1">
<path d="M 4.1875 -6.234375 L 0.96875 -6.234375 L 0.5 -2.84375 L 1.21875 -2.84375 C 1.578125 -3.265625 1.875 -3.421875 2.359375 -3.421875 C 3.203125 -3.421875 3.71875 -2.84375 3.71875 -1.921875 C 3.71875 -1.03125 3.203125 -0.484375 2.359375 -0.484375 C 1.6875 -0.484375 1.265625 -0.828125 1.078125 -1.53125 L 0.3125 -1.53125 C 0.40625 -1.015625 0.5 -0.78125 0.6875 -0.546875 C 1.03125 -0.078125 1.671875 0.203125 2.375 0.203125 C 3.640625 0.203125 4.515625 -0.71875 4.515625 -2.03125 C 4.515625 -3.265625 3.6875 -4.109375 2.5 -4.109375 C 2.0625 -4.109375 1.703125 -4 1.34375 -3.734375 L 1.59375 -5.46875 L 4.1875 -5.46875 Z M 4.1875 -6.234375 "/>
</g>
<g id="glyph-0-2">
<path d="M 2.28125 -4.53125 L 2.28125 0 L 3.046875 0 L 3.046875 -6.359375 L 2.546875 -6.359375 C 2.265625 -5.390625 2.09375 -5.25 0.890625 -5.09375 L 0.890625 -4.53125 Z M 2.28125 -4.53125 "/>
</g>
<g id="glyph-0-3">
<path d="M 4.453125 -0.765625 L 1.171875 -0.765625 C 1.25 -1.296875 1.53125 -1.625 2.296875 -2.09375 L 3.171875 -2.59375 C 4.046875 -3.0625 4.5 -3.71875 4.5 -4.5 C 4.5 -5.03125 4.28125 -5.53125 3.921875 -5.875 C 3.546875 -6.203125 3.09375 -6.359375 2.5 -6.359375 C 1.703125 -6.359375 1.125 -6.078125 0.78125 -5.53125 C 0.546875 -5.203125 0.453125 -4.796875 0.4375 -4.15625 L 1.21875 -4.15625 C 1.234375 -4.59375 1.296875 -4.84375 1.40625 -5.0625 C 1.59375 -5.4375 2 -5.6875 2.46875 -5.6875 C 3.171875 -5.6875 3.703125 -5.171875 3.703125 -4.484375 C 3.703125 -3.96875 3.40625 -3.53125 2.859375 -3.21875 L 2.046875 -2.75 C 0.75 -2 0.375 -1.40625 0.296875 -0.015625 L 4.453125 -0.015625 Z M 4.453125 -0.765625 "/>
</g>
<g id="glyph-0-4">
<path d="M 1.9375 -2.921875 L 2.359375 -2.921875 C 3.203125 -2.921875 3.65625 -2.53125 3.65625 -1.765625 C 3.65625 -0.96875 3.171875 -0.484375 2.375 -0.484375 C 1.515625 -0.484375 1.109375 -0.921875 1.0625 -1.84375 L 0.28125 -1.84375 C 0.3125 -1.34375 0.40625 -1 0.546875 -0.71875 C 0.875 -0.109375 1.484375 0.203125 2.34375 0.203125 C 3.625 0.203125 4.453125 -0.578125 4.453125 -1.78125 C 4.453125 -2.59375 4.140625 -3.03125 3.390625 -3.296875 C 3.96875 -3.53125 4.265625 -3.96875 4.265625 -4.609375 C 4.265625 -5.703125 3.546875 -6.359375 2.359375 -6.359375 C 1.109375 -6.359375 0.4375 -5.65625 0.40625 -4.3125 L 1.1875 -4.3125 C 1.203125 -4.703125 1.234375 -4.921875 1.328125 -5.109375 C 1.5 -5.46875 1.890625 -5.6875 2.375 -5.6875 C 3.0625 -5.6875 3.46875 -5.265625 3.46875 -4.578125 C 3.46875 -4.140625 3.3125 -3.859375 2.96875 -3.71875 C 2.765625 -3.625 2.484375 -3.59375 1.9375 -3.578125 Z M 1.9375 -2.921875 "/>
</g>
<g id="glyph-0-5">
<path d="M 2.875 -1.546875 L 2.875 0 L 3.65625 0 L 3.65625 -1.546875 L 4.578125 -1.546875 L 4.578125 -2.234375 L 3.65625 -2.234375 L 3.65625 -6.359375 L 3.078125 -6.359375 L 0.25 -2.359375 L 0.25 -1.546875 Z M 2.875 -2.234375 L 0.921875 -2.234375 L 2.875 -5.046875 Z M 2.875 -2.234375 "/>
</g>
<g id="glyph-0-6">
<path d="M 0.46875 -1.453125 C 0.609375 -0.40625 1.28125 0.203125 2.234375 0.203125 C 2.921875 0.203125 3.546875 -0.125 3.921875 -0.703125 C 4.296875 -1.328125 4.484375 -2.109375 4.484375 -3.25 C 4.484375 -4.328125 4.3125 -5 3.953125 -5.5625 C 3.609375 -6.09375 3.0625 -6.359375 2.375 -6.359375 C 1.1875 -6.359375 0.328125 -5.46875 0.328125 -4.234375 C 0.328125 -3.0625 1.125 -2.25 2.25 -2.25 C 2.84375 -2.25 3.28125 -2.453125 3.671875 -2.9375 C 3.671875 -1.359375 3.171875 -0.484375 2.28125 -0.484375 C 1.734375 -0.484375 1.359375 -0.828125 1.234375 -1.453125 Z M 2.359375 -5.6875 C 3.09375 -5.6875 3.640625 -5.078125 3.640625 -4.25 C 3.640625 -3.46875 3.109375 -2.921875 2.34375 -2.921875 C 1.59375 -2.921875 1.125 -3.453125 1.125 -4.296875 C 1.125 -5.109375 1.640625 -5.6875 2.359375 -5.6875 Z M 2.359375 -5.6875 "/>
</g>
<g id="glyph-1-0">
<path d="M 6.09375 0 L 7.78125 -5.765625 L 6.75 -5.765625 L 5.609375 -1.28125 L 4.484375 -5.765625 L 3.359375 -5.765625 L 2.25 -1.28125 L 1.078125 -5.765625 L 0.0625 -5.765625 L 1.734375 0 L 2.765625 0 L 3.890625 -4.515625 L 5.046875 0 Z M 6.09375 0 "/>
</g>
<g id="glyph-1-1">
<path d="M 5.890625 -0.53125 C 5.78125 -0.515625 5.734375 -0.515625 5.6875 -0.515625 C 5.375 -0.515625 5.1875 -0.6875 5.1875 -0.96875 L 5.1875 -4.359375 C 5.1875 -5.375 4.4375 -5.921875 3.03125 -5.921875 C 2.171875 -5.921875 1.5 -5.6875 1.109375 -5.265625 C 0.84375 -4.96875 0.734375 -4.625 0.71875 -4.0625 L 1.640625 -4.0625 C 1.71875 -4.765625 2.140625 -5.078125 2.984375 -5.078125 C 3.828125 -5.078125 4.28125 -4.78125 4.28125 -4.21875 L 4.28125 -3.984375 C 4.265625 -3.59375 4.0625 -3.4375 3.328125 -3.34375 C 2.03125 -3.171875 1.828125 -3.140625 1.46875 -2.984375 C 0.796875 -2.703125 0.46875 -2.203125 0.46875 -1.453125 C 0.46875 -0.40625 1.1875 0.25 2.359375 0.25 C 3.078125 0.25 3.65625 0 4.3125 -0.59375 C 4.375 0 4.65625 0.25 5.265625 0.25 C 5.453125 0.25 5.578125 0.234375 5.890625 0.15625 Z M 4.28125 -1.8125 C 4.28125 -1.5 4.1875 -1.3125 3.921875 -1.0625 C 3.546875 -0.71875 3.09375 -0.546875 2.546875 -0.546875 C 1.84375 -0.546875 1.421875 -0.890625 1.421875 -1.46875 C 1.421875 -2.078125 1.8125 -2.390625 2.8125 -2.53125 C 3.78125 -2.65625 3.96875 -2.703125 4.28125 -2.84375 Z M 4.28125 -1.8125 "/>
</g>
<g id="glyph-1-2">
<path d="M 4.4375 -5.765625 L 4.4375 -4.921875 C 3.984375 -5.625 3.46875 -5.921875 2.75 -5.921875 C 1.359375 -5.921875 0.390625 -4.625 0.390625 -2.78125 C 0.390625 -1.8125 0.609375 -1.109375 1.109375 -0.53125 C 1.546875 -0.015625 2.09375 0.25 2.6875 0.25 C 3.375 0.25 3.875 -0.0625 4.359375 -0.78125 L 4.359375 -0.484375 C 4.359375 1.0625 3.921875 1.625 2.78125 1.625 C 2 1.625 1.59375 1.3125 1.5 0.65625 L 0.578125 0.65625 C 0.65625 1.734375 1.5 2.390625 2.765625 2.390625 C 3.609375 2.390625 4.3125 2.125 4.6875 1.65625 C 5.125 1.125 5.296875 0.40625 5.296875 -0.953125 L 5.296875 -5.765625 Z M 2.84375 -5.078125 C 3.8125 -5.078125 4.359375 -4.265625 4.359375 -2.8125 C 4.359375 -1.40625 3.796875 -0.59375 2.84375 -0.59375 C 1.890625 -0.59375 1.34375 -1.421875 1.34375 -2.84375 C 1.34375 -4.25 1.890625 -5.078125 2.84375 -5.078125 Z M 2.84375 -5.078125 "/>
</g>
<g id="glyph-1-3">
<path d="M 5.640625 -2.578125 C 5.640625 -3.453125 5.578125 -3.984375 5.40625 -4.40625 C 5.03125 -5.359375 4.15625 -5.921875 3.078125 -5.921875 C 1.46875 -5.921875 0.4375 -4.703125 0.4375 -2.8125 C 0.4375 -0.90625 1.4375 0.25 3.0625 0.25 C 4.375 0.25 5.296875 -0.5 5.515625 -1.75 L 4.59375 -1.75 C 4.34375 -0.984375 3.828125 -0.59375 3.09375 -0.59375 C 2.515625 -0.59375 2.015625 -0.859375 1.703125 -1.34375 C 1.484375 -1.671875 1.40625 -2 1.390625 -2.578125 Z M 1.421875 -3.328125 C 1.5 -4.390625 2.140625 -5.078125 3.0625 -5.078125 C 4 -5.078125 4.65625 -4.359375 4.65625 -3.328125 Z M 1.421875 -3.328125 "/>
</g>
<g id="glyph-1-4">
<path d="M 2.84375 -5.765625 L 1.875 -5.765625 L 1.875 -6.671875 C 1.875 -7.046875 2.09375 -7.25 2.515625 -7.25 C 2.59375 -7.25 2.625 -7.25 2.84375 -7.234375 L 2.84375 -8 C 2.625 -8.046875 2.515625 -8.046875 2.328125 -8.046875 C 1.46875 -8.046875 0.96875 -7.5625 0.96875 -6.75 L 0.96875 -5.765625 L 0.203125 -5.765625 L 0.203125 -5.015625 L 0.96875 -5.015625 L 0.96875 0 L 1.875 0 L 1.875 -5.015625 L 2.84375 -5.015625 Z M 2.84375 -5.765625 "/>
</g>
<g id="glyph-1-5">
<path d="M 5.1875 -3.828125 C 5.140625 -4.390625 5.015625 -4.75 4.796875 -5.078125 C 4.40625 -5.609375 3.703125 -5.921875 2.90625 -5.921875 C 1.34375 -5.921875 0.34375 -4.703125 0.34375 -2.78125 C 0.34375 -0.921875 1.328125 0.25 2.890625 0.25 C 4.265625 0.25 5.140625 -0.578125 5.25 -1.984375 L 4.328125 -1.984375 C 4.171875 -1.0625 3.703125 -0.59375 2.921875 -0.59375 C 1.90625 -0.59375 1.296875 -1.421875 1.296875 -2.78125 C 1.296875 -4.21875 1.890625 -5.078125 2.890625 -5.078125 C 3.65625 -5.078125 4.140625 -4.625 4.25 -3.828125 Z M 5.1875 -3.828125 "/>
</g>
<g id="glyph-1-6">
<path d="M 2.796875 -5.765625 L 1.84375 -5.765625 L 1.84375 -7.34375 L 0.9375 -7.34375 L 0.9375 -5.765625 L 0.15625 -5.765625 L 0.15625 -5.015625 L 0.9375 -5.015625 L 0.9375 -0.65625 C 0.9375 -0.0625 1.328125 0.25 2.046875 0.25 C 2.28125 0.25 2.484375 0.234375 2.796875 0.171875 L 2.796875 -0.59375 C 2.65625 -0.5625 2.546875 -0.546875 2.359375 -0.546875 C 1.953125 -0.546875 1.84375 -0.65625 1.84375 -1.0625 L 1.84375 -5.015625 L 2.796875 -5.015625 Z M 2.796875 -5.765625 "/>
</g>
<g id="glyph-1-7">
<path d="M 2.984375 -5.921875 C 1.359375 -5.921875 0.390625 -4.78125 0.390625 -2.84375 C 0.390625 -0.890625 1.359375 0.25 3 0.25 C 4.625 0.25 5.609375 -0.90625 5.609375 -2.796875 C 5.609375 -4.796875 4.65625 -5.921875 2.984375 -5.921875 Z M 3 -5.078125 C 4.03125 -5.078125 4.65625 -4.234375 4.65625 -2.8125 C 4.65625 -1.4375 4.015625 -0.59375 3 -0.59375 C 1.984375 -0.59375 1.359375 -1.4375 1.359375 -2.84375 C 1.359375 -4.234375 1.984375 -5.078125 3 -5.078125 Z M 3 -5.078125 "/>
</g>
<g id="glyph-1-8">
<path d="M 0.765625 -5.765625 L 0.765625 0 L 1.6875 0 L 1.6875 -2.984375 C 1.6875 -4.375 2.265625 -5 3.53125 -4.96875 L 3.53125 -5.890625 C 3.375 -5.921875 3.28125 -5.921875 3.171875 -5.921875 C 2.578125 -5.921875 2.140625 -5.578125 1.609375 -4.71875 L 1.609375 -5.765625 Z M 0.765625 -5.765625 "/>
</g>
<g id="glyph-1-9">
<path d="M 2.59375 -8.015625 C 1.5 -6.578125 0.796875 -4.578125 0.796875 -2.84375 C 0.796875 -1.109375 1.5 0.890625 2.59375 2.328125 L 3.203125 2.328125 C 2.234375 0.765625 1.6875 -1.09375 1.6875 -2.84375 C 1.6875 -4.59375 2.234375 -6.453125 3.203125 -8.015625 Z M 2.59375 -8.015625 "/>
</g>
<g id="glyph-1-10">
<path d="M 4.265625 -5.765625 L 2.671875 -1.28125 L 1.203125 -5.765625 L 0.21875 -5.765625 L 2.171875 0.015625 L 1.8125 0.9375 C 1.65625 1.34375 1.46875 1.5 1.078125 1.5 C 0.921875 1.5 0.796875 1.46875 0.59375 1.4375 L 0.59375 2.25 C 0.78125 2.359375 0.96875 2.390625 1.203125 2.390625 C 1.5 2.390625 1.828125 2.296875 2.0625 2.125 C 2.359375 1.90625 2.515625 1.671875 2.6875 1.203125 L 5.265625 -5.765625 Z M 4.265625 -5.765625 "/>
</g>
<g id="glyph-1-11">
<path d="M 1.015625 2.328125 C 2.125 0.890625 2.8125 -1.109375 2.8125 -2.84375 C 2.8125 -4.578125 2.125 -6.578125 1.015625 -8.015625 L 0.421875 -8.015625 C 1.390625 -6.453125 1.921875 -4.59375 1.921875 -2.84375 C 1.921875 -1.09375 1.390625 0.765625 0.421875 2.328125 Z M 1.015625 2.328125 "/>
</g>
<g id="glyph-2-0">
<path d="M -3.828125 -5.1875 C -4.390625 -5.140625 -4.75 -5.015625 -5.078125 -4.796875 C -5.609375 -4.40625 -5.921875 -3.703125 -5.921875 -2.90625 C -5.921875 -1.34375 -4.703125 -0.34375 -2.78125 -0.34375 C -0.921875 -0.34375 0.25 -1.328125 0.25 -2.890625 C 0.25 -4.265625 -0.578125 -5.140625 -1.984375 -5.25 L -1.984375 -4.328125 C -1.0625 -4.171875 -0.59375 -3.703125 -0.59375 -2.921875 C -0.59375 -1.90625 -1.421875 -1.296875 -2.78125 -1.296875 C -4.21875 -1.296875 -5.078125 -1.890625 -5.078125 -2.890625 C -5.078125 -3.65625 -4.625 -4.140625 -3.828125 -4.25 Z M -3.828125 -5.1875 "/>
</g>
<g id="glyph-2-1">
<path d="M -5.921875 -2.984375 C -5.921875 -1.359375 -4.78125 -0.390625 -2.84375 -0.390625 C -0.890625 -0.390625 0.25 -1.359375 0.25 -3 C 0.25 -4.625 -0.90625 -5.609375 -2.796875 -5.609375 C -4.796875 -5.609375 -5.921875 -4.65625 -5.921875 -2.984375 Z M -5.078125 -3 C -5.078125 -4.03125 -4.234375 -4.65625 -2.8125 -4.65625 C -1.4375 -4.65625 -0.59375 -4.015625 -0.59375 -3 C -0.59375 -1.984375 -1.4375 -1.359375 -2.84375 -1.359375 C -4.234375 -1.359375 -5.078125 -1.984375 -5.078125 -3 Z M -5.078125 -3 "/>
</g>
<g id="glyph-2-2">
<path d="M 0 -5.296875 L -5.765625 -5.296875 L -5.765625 -4.390625 L -2.5 -4.390625 C -1.3125 -4.390625 -0.546875 -3.765625 -0.546875 -2.8125 C -0.546875 -2.09375 -0.984375 -1.625 -1.6875 -1.625 L -5.765625 -1.625 L -5.765625 -0.71875 L -1.3125 -0.71875 C -0.359375 -0.71875 0.25 -1.4375 0.25 -2.546875 C 0.25 -3.40625 -0.046875 -3.9375 -0.796875 -4.484375 L 0 -4.484375 Z M 0 -5.296875 "/>
</g>
<g id="glyph-2-3">
<path d="M -5.765625 -0.765625 L 0 -0.765625 L 0 -1.6875 L -3.171875 -1.6875 C -4.359375 -1.6875 -5.125 -2.3125 -5.125 -3.25 C -5.125 -3.984375 -4.6875 -4.4375 -4 -4.4375 L 0 -4.4375 L 0 -5.359375 L -4.359375 -5.359375 C -5.3125 -5.359375 -5.921875 -4.640625 -5.921875 -3.53125 C -5.921875 -2.671875 -5.59375 -2.125 -4.796875 -1.609375 L -5.765625 -1.609375 Z M -5.765625 -0.765625 "/>
</g>
<g id="glyph-2-4">
<path d="M -5.765625 -2.796875 L -5.765625 -1.84375 L -7.34375 -1.84375 L -7.34375 -0.9375 L -5.765625 -0.9375 L -5.765625 -0.15625 L -5.015625 -0.15625 L -5.015625 -0.9375 L -0.65625 -0.9375 C -0.0625 -0.9375 0.25 -1.328125 0.25 -2.046875 C 0.25 -2.28125 0.234375 -2.484375 0.171875 -2.796875 L -0.59375 -2.796875 C -0.5625 -2.65625 -0.546875 -2.546875 -0.546875 -2.359375 C -0.546875 -1.953125 -0.65625 -1.84375 -1.0625 -1.84375 L -5.015625 -1.84375 L -5.015625 -2.796875 Z M -5.765625 -2.796875 "/>
</g>
</g>
<clipPath id="clip-0">
<path clip-rule="nonzero" d="M 35.152344 5.480469 L 311.605469 5.480469 L 311.605469 217.851562 L 35.152344 217.851562 Z M 35.152344 5.480469 "/>
</clipPath>
<clipPath id="clip-1">
<path clip-rule="nonzero" d="M 35.152344 186 L 311.605469 186 L 311.605469 188 L 35.152344 188 Z M 35.152344 186 "/>
</clipPath>
<clipPath id="clip-2">
<path clip-rule="nonzero" d="M 35.152344 144 L 311.605469 144 L 311.605469 146 L 35.152344 146 Z M 35.152344 144 "/>
</clipPath>
<clipPath id="clip-3">
<path clip-rule="nonzero" d="M 35.152344 103 L 311.605469 103 L 311.605469 104 L 35.152344 104 Z M 35.152344 103 "/>
</clipPath>
<clipPath id="clip-4">
<path clip-rule="nonzero" d="M 35.152344 61 L 311.605469 61 L 311.605469 62 L 35.152344 62 Z M 35.152344 61 "/>
</clipPath>
<clipPath id="clip-5">
<path clip-rule="nonzero" d="M 35.152344 19 L 311.605469 19 L 311.605469 20 L 35.152344 20 Z M 35.152344 19 "/>
</clipPath>
<clipPath id="clip-6">
<path clip-rule="nonzero" d="M 69 5.480469 L 71 5.480469 L 71 217.851562 L 69 217.851562 Z M 69 5.480469 "/>
</clipPath>
<clipPath id="clip-7">
<path clip-rule="nonzero" d="M 164 5.480469 L 166 5.480469 L 166 217.851562 L 164 217.851562 Z M 164 5.480469 "/>
</clipPath>
<clipPath id="clip-8">
<path clip-rule="nonzero" d="M 259 5.480469 L 260 5.480469 L 260 217.851562 L 259 217.851562 Z M 259 5.480469 "/>
</clipPath>
<clipPath id="clip-9">
<path clip-rule="nonzero" d="M 35.152344 207 L 311.605469 207 L 311.605469 209 L 35.152344 209 Z M 35.152344 207 "/>
</clipPath>
<clipPath id="clip-10">
<path clip-rule="nonzero" d="M 35.152344 165 L 311.605469 165 L 311.605469 167 L 35.152344 167 Z M 35.152344 165 "/>
</clipPath>
<clipPath id="clip-11">
<path clip-rule="nonzero" d="M 35.152344 123 L 311.605469 123 L 311.605469 125 L 35.152344 125 Z M 35.152344 123 "/>
</clipPath>
<clipPath id="clip-12">
<path clip-rule="nonzero" d="M 35.152344 81 L 311.605469 81 L 311.605469 83 L 35.152344 83 Z M 35.152344 81 "/>
</clipPath>
<clipPath id="clip-13">
<path clip-rule="nonzero" d="M 35.152344 39 L 311.605469 39 L 311.605469 41 L 35.152344 41 Z M 35.152344 39 "/>
</clipPath>
<clipPath id="clip-14">
<path clip-rule="nonzero" d="M 116 5.480469 L 118 5.480469 L 118 217.851562 L 116 217.851562 Z M 116 5.480469 "/>
</clipPath>
<clipPath id="clip-15">
<path clip-rule="nonzero" d="M 211 5.480469 L 213 5.480469 L 213 217.851562 L 211 217.851562 Z M 211 5.480469 "/>
</clipPath>
<clipPath id="clip-16">
<path clip-rule="nonzero" d="M 306 5.480469 L 308 5.480469 L 308 217.851562 L 306 217.851562 Z M 306 5.480469 "/>
</clipPath>
</defs>
<rect x="-39.6" y="-25.2" width="475.2" height="302.4" fill="rgb(100%, 100%, 100%)" fill-opacity="1"/>
<rect x="-39.6" y="-25.2" width="475.2" height="302.4" fill="rgb(100%, 100%, 100%)" fill-opacity="1"/>
<path fill="none" stroke-width="1.066978" stroke-linecap="round" stroke-linejoin="round" stroke="rgb(100%, 100%, 100%)" stroke-opacity="1" stroke-miterlimit="10" d="M 0 252 L 396 252 L 396 0 L 0 0 Z M 0 252 "/>
<g clip-path="url(#clip-0)">
<path fill-rule="nonzero" fill="rgb(92.156863%, 92.156863%, 92.156863%)" fill-opacity="1" d="M 35.152344 217.847656 L 311.605469 217.847656 L 311.605469 5.476562 L 35.152344 5.476562 Z M 35.152344 217.847656 "/>
</g>
<g clip-path="url(#clip-1)">
<path fill="none" stroke-width="0.533489" stroke-linecap="butt" stroke-linejoin="round" stroke="rgb(100%, 100%, 100%)" stroke-opacity="1" stroke-miterlimit="10" d="M 35.152344 187.210938 L 311.601562 187.210938 "/>
</g>
<g clip-path="url(#clip-2)">
<path fill="none" stroke-width="0.533489" stroke-linecap="butt" stroke-linejoin="round" stroke="rgb(100%, 100%, 100%)" stroke-opacity="1" stroke-miterlimit="10" d="M 35.152344 145.242188 L 311.601562 145.242188 "/>
</g>
<g clip-path="url(#clip-3)">
<path fill="none" stroke-width="0.533489" stroke-linecap="butt" stroke-linejoin="round" stroke="rgb(100%, 100%, 100%)" stroke-opacity="1" stroke-miterlimit="10" d="M 35.152344 103.269531 L 311.601562 103.269531 "/>
</g>
<g clip-path="url(#clip-4)">
<path fill="none" stroke-width="0.533489" stroke-linecap="butt" stroke-linejoin="round" stroke="rgb(100%, 100%, 100%)" stroke-opacity="1" stroke-miterlimit="10" d="M 35.152344 61.300781 L 311.601562 61.300781 "/>
</g>
<g clip-path="url(#clip-5)">
<path fill="none" stroke-width="0.533489" stroke-linecap="butt" stroke-linejoin="round" stroke="rgb(100%, 100%, 100%)" stroke-opacity="1" stroke-miterlimit="10" d="M 35.152344 19.328125 L 311.601562 19.328125 "/>
</g>
<g clip-path="url(#clip-6)">
<path fill="none" stroke-width="0.533489" stroke-linecap="butt" stroke-linejoin="round" stroke="rgb(100%, 100%, 100%)" stroke-opacity="1" stroke-miterlimit="10" d="M 70.042969 217.847656 L 70.042969 5.480469 "/>
</g>
<g clip-path="url(#clip-7)">
<path fill="none" stroke-width="0.533489" stroke-linecap="butt" stroke-linejoin="round" stroke="rgb(100%, 100%, 100%)" stroke-opacity="1" stroke-miterlimit="10" d="M 164.800781 217.847656 L 164.800781 5.480469 "/>
</g>
<g clip-path="url(#clip-8)">
<path fill="none" stroke-width="0.533489" stroke-linecap="butt" stroke-linejoin="round" stroke="rgb(100%, 100%, 100%)" stroke-opacity="1" stroke-miterlimit="10" d="M 259.558594 217.847656 L 259.558594 5.480469 "/>
</g>
<g clip-path="url(#clip-9)">
<path fill="none" stroke-width="1.066978" stroke-linecap="butt" stroke-linejoin="round" stroke="rgb(100%, 100%, 100%)" stroke-opacity="1" stroke-miterlimit="10" d="M 35.152344 208.195312 L 311.601562 208.195312 "/>
</g>
<g clip-path="url(#clip-10)">
<path fill="none" stroke-width="1.066978" stroke-linecap="butt" stroke-linejoin="round" stroke="rgb(100%, 100%, 100%)" stroke-opacity="1" stroke-miterlimit="10" d="M 35.152344 166.226562 L 311.601562 166.226562 "/>
</g>
<g clip-path="url(#clip-11)">
<path fill="none" stroke-width="1.066978" stroke-linecap="butt" stroke-linejoin="round" stroke="rgb(100%, 100%, 100%)" stroke-opacity="1" stroke-miterlimit="10" d="M 35.152344 124.253906 L 311.601562 124.253906 "/>
</g>
<g clip-path="url(#clip-12)">
<path fill="none" stroke-width="1.066978" stroke-linecap="butt" stroke-linejoin="round" stroke="rgb(100%, 100%, 100%)" stroke-opacity="1" stroke-miterlimit="10" d="M 35.152344 82.285156 L 311.601562 82.285156 "/>
</g>
<g clip-path="url(#clip-13)">
<path fill="none" stroke-width="1.066978" stroke-linecap="butt" stroke-linejoin="round" stroke="rgb(100%, 100%, 100%)" stroke-opacity="1" stroke-miterlimit="10" d="M 35.152344 40.316406 L 311.601562 40.316406 "/>
</g>
<g clip-path="url(#clip-14)">
<path fill="none" stroke-width="1.066978" stroke-linecap="butt" stroke-linejoin="round" stroke="rgb(100%, 100%, 100%)" stroke-opacity="1" stroke-miterlimit="10" d="M 117.421875 217.847656 L 117.421875 5.480469 "/>
</g>
<g clip-path="url(#clip-15)">
<path fill="none" stroke-width="1.066978" stroke-linecap="butt" stroke-linejoin="round" stroke="rgb(100%, 100%, 100%)" stroke-opacity="1" stroke-miterlimit="10" d="M 212.179688 217.847656 L 212.179688 5.480469 "/>
</g>
<g clip-path="url(#clip-16)">
<path fill="none" stroke-width="1.066978" stroke-linecap="butt" stroke-linejoin="round" stroke="rgb(100%, 100%, 100%)" stroke-opacity="1" stroke-miterlimit="10" d="M 306.9375 217.847656 L 306.9375 5.480469 "/>
</g>
<path fill-rule="nonzero" fill="rgb(97.254902%, 46.27451%, 42.745098%)" fill-opacity="1" d="M 47.714844 208.195312 L 72.847656 208.195312 L 72.847656 199.800781 L 47.714844 199.800781 Z M 47.714844 208.195312 "/>
<path fill-rule="nonzero" fill="rgb(97.254902%, 46.27451%, 42.745098%)" fill-opacity="1" d="M 72.847656 183.015625 L 97.980469 183.015625 L 97.980469 132.652344 L 72.847656 132.652344 Z M 72.847656 183.015625 "/>
<path fill-rule="nonzero" fill="rgb(97.254902%, 46.27451%, 42.745098%)" fill-opacity="1" d="M 97.980469 115.863281 L 123.113281 115.863281 L 123.113281 15.132812 L 97.980469 15.132812 Z M 97.980469 115.863281 "/>
<path fill-rule="nonzero" fill="rgb(97.254902%, 46.27451%, 42.745098%)" fill-opacity="1" d="M 123.113281 166.226562 L 148.246094 166.226562 L 148.246094 149.4375 L 123.113281 149.4375 Z M 123.113281 166.226562 "/>
<path fill-rule="nonzero" fill="rgb(97.254902%, 46.27451%, 42.745098%)" fill-opacity="1" d="M 248.773438 208.195312 L 273.90625 208.195312 L 273.90625 191.40625 L 248.773438 191.40625 Z M 248.773438 208.195312 "/>
<path fill-rule="nonzero" fill="rgb(0%, 74.901961%, 76.862745%)" fill-opacity="1" d="M 72.847656 208.195312 L 97.980469 208.195312 L 97.980469 183.011719 L 72.847656 183.011719 Z M 72.847656 208.195312 "/>
<path fill-rule="nonzero" fill="rgb(0%, 74.901961%, 76.862745%)" fill-opacity="1" d="M 97.980469 208.195312 L 123.113281 208.195312 L 123.113281 115.859375 L 97.980469 115.859375 Z M 97.980469 208.195312 "/>
<path fill-rule="nonzero" fill="rgb(0%, 74.901961%, 76.862745%)" fill-opacity="1" d="M 123.113281 208.195312 L 148.246094 208.195312 L 148.246094 166.226562 L 123.113281 166.226562 Z M 123.113281 208.195312 "/>
<path fill-rule="nonzero" fill="rgb(0%, 74.901961%, 76.862745%)" fill-opacity="1" d="M 148.246094 208.195312 L 173.378906 208.195312 L 173.378906 191.40625 L 148.246094 191.40625 Z M 148.246094 208.195312 "/>
<path fill-rule="nonzero" fill="rgb(0%, 74.901961%, 76.862745%)" fill-opacity="1" d="M 273.90625 208.195312 L 299.039062 208.195312 L 299.039062 191.40625 L 273.90625 191.40625 Z M 273.90625 208.195312 "/>
<g fill="rgb(30.196078%, 30.196078%, 30.196078%)" fill-opacity="1">
<use xlink:href="#glyph-0-0" x="25.21875" y="211.110352"/>
</g>
<g fill="rgb(30.196078%, 30.196078%, 30.196078%)" fill-opacity="1">
<use xlink:href="#glyph-0-1" x="25.21875" y="169.141602"/>
</g>
<g fill="rgb(30.196078%, 30.196078%, 30.196078%)" fill-opacity="1">
<use xlink:href="#glyph-0-2" x="20.21875" y="127.168945"/>
<use xlink:href="#glyph-0-0" x="25.21875" y="127.168945"/>
</g>
<g fill="rgb(30.196078%, 30.196078%, 30.196078%)" fill-opacity="1">
<use xlink:href="#glyph-0-2" x="20.21875" y="85.200195"/>
<use xlink:href="#glyph-0-1" x="25.21875" y="85.200195"/>
</g>
<g fill="rgb(30.196078%, 30.196078%, 30.196078%)" fill-opacity="1">
<use xlink:href="#glyph-0-3" x="20.21875" y="43.231445"/>
<use xlink:href="#glyph-0-0" x="25.21875" y="43.231445"/>
</g>
<path fill="none" stroke-width="1.066978" stroke-linecap="butt" stroke-linejoin="round" stroke="rgb(20%, 20%, 20%)" stroke-opacity="1" stroke-miterlimit="10" d="M 32.410156 208.195312 L 35.152344 208.195312 "/>
<path fill="none" stroke-width="1.066978" stroke-linecap="butt" stroke-linejoin="round" stroke="rgb(20%, 20%, 20%)" stroke-opacity="1" stroke-miterlimit="10" d="M 32.410156 166.226562 L 35.152344 166.226562 "/>
<path fill="none" stroke-width="1.066978" stroke-linecap="butt" stroke-linejoin="round" stroke="rgb(20%, 20%, 20%)" stroke-opacity="1" stroke-miterlimit="10" d="M 32.410156 124.253906 L 35.152344 124.253906 "/>
<path fill="none" stroke-width="1.066978" stroke-linecap="butt" stroke-linejoin="round" stroke="rgb(20%, 20%, 20%)" stroke-opacity="1" stroke-miterlimit="10" d="M 32.410156 82.285156 L 35.152344 82.285156 "/>
<path fill="none" stroke-width="1.066978" stroke-linecap="butt" stroke-linejoin="round" stroke="rgb(20%, 20%, 20%)" stroke-opacity="1" stroke-miterlimit="10" d="M 32.410156 40.316406 L 35.152344 40.316406 "/>
<path fill="none" stroke-width="1.066978" stroke-linecap="butt" stroke-linejoin="round" stroke="rgb(20%, 20%, 20%)" stroke-opacity="1" stroke-miterlimit="10" d="M 117.421875 220.589844 L 117.421875 217.847656 "/>
<path fill="none" stroke-width="1.066978" stroke-linecap="butt" stroke-linejoin="round" stroke="rgb(20%, 20%, 20%)" stroke-opacity="1" stroke-miterlimit="10" d="M 212.179688 220.589844 L 212.179688 217.847656 "/>
<path fill="none" stroke-width="1.066978" stroke-linecap="butt" stroke-linejoin="round" stroke="rgb(20%, 20%, 20%)" stroke-opacity="1" stroke-miterlimit="10" d="M 306.9375 220.589844 L 306.9375 217.847656 "/>
<g fill="rgb(30.196078%, 30.196078%, 30.196078%)" fill-opacity="1">
<use xlink:href="#glyph-0-3" x="107.421875" y="229.196289"/>
<use xlink:href="#glyph-0-0" x="112.421875" y="229.196289"/>
<use xlink:href="#glyph-0-0" x="117.421875" y="229.196289"/>
<use xlink:href="#glyph-0-0" x="122.421875" y="229.196289"/>
</g>
<g fill="rgb(30.196078%, 30.196078%, 30.196078%)" fill-opacity="1">
<use xlink:href="#glyph-0-4" x="202.179688" y="229.196289"/>
<use xlink:href="#glyph-0-0" x="207.179688" y="229.196289"/>
<use xlink:href="#glyph-0-0" x="212.179688" y="229.196289"/>
<use xlink:href="#glyph-0-0" x="217.179688" y="229.196289"/>
</g>
<g fill="rgb(30.196078%, 30.196078%, 30.196078%)" fill-opacity="1">
<use xlink:href="#glyph-0-5" x="296.9375" y="229.196289"/>
<use xlink:href="#glyph-0-0" x="301.9375" y="229.196289"/>
<use xlink:href="#glyph-0-0" x="306.9375" y="229.196289"/>
<use xlink:href="#glyph-0-0" x="311.9375" y="229.196289"/>
</g>
<g fill="rgb(0%, 0%, 0%)" fill-opacity="1">
<use xlink:href="#glyph-1-0" x="160.375" y="242.538086"/>
<use xlink:href="#glyph-1-1" x="168.375" y="242.538086"/>
<use xlink:href="#glyph-1-2" x="174.375" y="242.538086"/>
<use xlink:href="#glyph-1-3" x="180.375" y="242.538086"/>
</g>
<g fill="rgb(0%, 0%, 0%)" fill-opacity="1">
<use xlink:href="#glyph-2-0" x="13.499023" y="125.164062"/>
<use xlink:href="#glyph-2-1" x="13.499023" y="119.164062"/>
<use xlink:href="#glyph-2-2" x="13.499023" y="113.164062"/>
<use xlink:href="#glyph-2-3" x="13.499023" y="107.164062"/>
<use xlink:href="#glyph-2-4" x="13.499023" y="101.164062"/>
</g>
<path fill-rule="nonzero" fill="rgb(100%, 100%, 100%)" fill-opacity="1" d="M 322.5625 143.164062 L 390.519531 143.164062 L 390.519531 80.164062 L 322.5625 80.164062 Z M 322.5625 143.164062 "/>
<g fill="rgb(0%, 0%, 0%)" fill-opacity="1">
<use xlink:href="#glyph-1-4" x="328.042969" y="95.163086"/>
<use xlink:href="#glyph-1-1" x="331.042969" y="95.163086"/>
<use xlink:href="#glyph-1-5" x="337.042969" y="95.163086"/>
<use xlink:href="#glyph-1-6" x="343.042969" y="95.163086"/>
<use xlink:href="#glyph-1-7" x="346.042969" y="95.163086"/>
<use xlink:href="#glyph-1-8" x="352.042969" y="95.163086"/>
<use xlink:href="#glyph-1-9" x="356.042969" y="95.163086"/>
<use xlink:href="#glyph-1-10" x="360.042969" y="95.163086"/>
<use xlink:href="#glyph-1-3" x="365.042969" y="95.163086"/>
<use xlink:href="#glyph-1-1" x="371.042969" y="95.163086"/>
<use xlink:href="#glyph-1-8" x="377.042969" y="95.163086"/>
<use xlink:href="#glyph-1-11" x="381.042969" y="95.163086"/>
</g>
<path fill-rule="nonzero" fill="rgb(92.156863%, 92.156863%, 92.156863%)" fill-opacity="1" d="M 328.042969 120.402344 L 345.324219 120.402344 L 345.324219 103.121094 L 328.042969 103.121094 Z M 328.042969 120.402344 "/>
<path fill-rule="nonzero" fill="rgb(97.254902%, 46.27451%, 42.745098%)" fill-opacity="1" d="M 328.75 119.695312 L 344.613281 119.695312 L 344.613281 103.832031 L 328.75 103.832031 Z M 328.75 119.695312 "/>
<path fill-rule="nonzero" fill="rgb(92.156863%, 92.156863%, 92.156863%)" fill-opacity="1" d="M 328.042969 137.683594 L 345.324219 137.683594 L 345.324219 120.402344 L 328.042969 120.402344 Z M 328.042969 137.683594 "/>
<path fill-rule="nonzero" fill="rgb(0%, 74.901961%, 76.862745%)" fill-opacity="1" d="M 328.75 136.976562 L 344.613281 136.976562 L 344.613281 121.113281 L 328.75 121.113281 Z M 328.75 136.976562 "/>
<g fill="rgb(0%, 0%, 0%)" fill-opacity="1">
<use xlink:href="#glyph-0-3" x="350.800781" y="114.680664"/>
<use xlink:href="#glyph-0-0" x="355.800781" y="114.680664"/>
<use xlink:href="#glyph-0-2" x="360.800781" y="114.680664"/>
<use xlink:href="#glyph-0-6" x="365.800781" y="114.680664"/>
</g>
<g fill="rgb(0%, 0%, 0%)" fill-opacity="1">
<use xlink:href="#glyph-0-3" x="350.800781" y="131.958008"/>
<use xlink:href="#glyph-0-0" x="355.800781" y="131.958008"/>
<use xlink:href="#glyph-0-3" x="360.800781" y="131.958008"/>
<use xlink:href="#glyph-0-0" x="365.800781" y="131.958008"/>
</g>
</svg>
